<svg height="512" viewBox="0 0 64 64" width="512" xmlns="http://www.w3.org/2000/svg"><g id="hand-receipt-invoice-bill-finance"><path d="m56 3-4 2-4-2-4 2-4.016-2-3.984 2-4-2-4 2-4-2v11 36 9l4 2 4-2 4 2 4-2 4.016 2 3.984-2 4 2 4-2 4 2v-11-36-9z" fill="#365e7d"/><circle cx="42" cy="18" fill="#ffda44" r="9"/><path d="m4 34h7v24h-7z" fill="#365e7d"/><path d="m11 56h5l3 2h5v-28h3.5c3.933 0 5.5-1.567 5.5-3.5a3.5 3.5 0 0 0 -3.5-3.5h-9.909a2 2 0 0 0 -1.949 1.55l-2.642 11.45h-4z" fill="#ffddce"/><path d="m45 16v-1a1 1 0 0 0 -1-1h-4a1 1 0 0 0 -1 1v1a1 1 0 0 0 1 1h4a3.009 3.009 0 0 1 3 3v1a3.009 3.009 0 0 1 -3 3h-1v1h-2v-1h-1a3.009 3.009 0 0 1 -3-3h2a1 1 0 0 0 1 1h4a1 1 0 0 0 1-1v-1a1 1 0 0 0 -1-1h-4a3.009 3.009 0 0 1 -3-3v-1a3.009 3.009 0 0 1 3-3h1v-1h2v1h1a3.009 3.009 0 0 1 3 3v1z" fill="#eb9a43"/><g fill="#c2dff6"><path d="m28 33h4v2h-4z"/><path d="m35 33h21v2h-21z"/><path d="m28 39h4v2h-4z"/><path d="m35 39h21v2h-21z"/><path d="m28 45h4v2h-4z"/><path d="m35 45h21v2h-21z"/><path d="m42 51h14v2h-14z"/></g></g></svg>